<?xml version="1.0" ?>
<svg id="Layer_1" style="enable-background:new 0 0 100 100;" version="1.1" viewBox="0 0 100 100" xml:space="preserve" xmlns="http://www.w3.org/2000/svg" xmlns:xlink="http://www.w3.org/1999/xlink">
  <style type="text/css">
    .st0{fill:url(#Background_13_);}
    .st3{fill:#FFFFFF;}
  </style>
  <g id="Symbols_6_">
    <g id="Graphics-_x2F_-App-Icons-_x2F_-Messages">
      <g id="Messages-Icon">
        <linearGradient gradientTransform="matrix(60 0 0 -60 25311 44901)" gradientUnits="userSpaceOnUse" id="Background_13_" x1="-421.0169" x2="-421.0169" y1="748.2662" y2="746.7667">
          <stop offset="0" style="stop-color:#67FF81"/>
          <stop offset="1" style="stop-color:#01B41F"/>
        </linearGradient>
        <path class="st0" d="M63.6,5c9,0,13.5,0,18.4,1.5c5.3,1.9,9.5,6.1,11.4,11.4C95,22.8,95,27.4,95,36.4v27.2     c0,9,0,13.5-1.5,18.4c-1.9,5.3-6.1,9.5-11.4,11.4C77.1,95,72.6,95,63.6,95H36.4c-9,0-13.5,0-18.4-1.5C12.6,91.5,8.5,87.4,6.5,82     C5,77.2,5,72.7,5,63.6V36.4c0-9,0-13.5,1.5-18.4C8.5,12.7,12.6,8.5,18,6.6C22.8,5,27.3,5,36.4,5H63.6z" id="Background_5_"/>
        <path class="st3" d="M43.5,75.7c2.1,0.3,4.2,0.5,6.4,0.5c18.2,0,33-12.3,33-27.4S68.2,21.5,50,21.5c-18.2,0-33,12.3-33,27.4     c0,9.9,6.3,18.5,15.7,23.3c0,0.3,0,0.6,0,1c0,2.9-4.8,6.7-4.5,6.7c4.8,0,8.2-3,10.5-3.7C40.6,75.7,41.7,75.6,43.5,75.7z"/>
      </g>
    </g>
  </g>
</svg>