<svg id="Layer_1" style="enable-background:new 0 0 100 100;" version="1.1" viewBox="0 0 100 100" xml:space="preserve" xmlns="http://www.w3.org/2000/svg" xmlns:xlink="http://www.w3.org/1999/xlink">
  <style type="text/css">
    .st0{fill:url(#Background_13_);}
    .st3{fill:#FFFFFF;}
  </style>
  <g id="Phone-Icon">
    <linearGradient gradientTransform="matrix(60 0 0 -60 25311 44901)" gradientUnits="userSpaceOnUse" id="Background_13_" x1="-421.0169" x2="-421.0169" y1="748.2662" y2="746.7667">
      <stop offset="0" style="stop-color:#67FF81"/>
      <stop offset="1" style="stop-color:#01B41F"/>
    </linearGradient>
    <path class="st0" d="M63.6,5c9,0,13.5,0,18.4,1.5c5.3,1.9,9.5,6.1,11.4,11.4C95,22.8,95,27.4,95,36.4v27.2
      c0,9,0,13.5-1.5,18.4c-1.9,5.3-6.1,9.5-11.4,11.4C77.1,95,72.6,95,63.6,95H36.4c-9,0-13.5,0-18.4-1.5C12.6,91.5,8.5,87.4,6.5,82
      C5,77.2,5,72.7,5,63.6V36.4c0-9,0-13.5,1.5-18.4C8.5,12.7,12.6,8.5,18,6.6C22.8,5,27.3,5,36.4,5H63.6z"/>
    <path class="st3" d="M25.7,44.3c-3.3-6-4.6-10.9-4.6-14.2s0.8-4.2,1.6-5c0.8-0.8,4.5-3,5.2-3.5c0.6-0.4,3-1.3,4.5,0.9
      s4.3,6.5,6.3,9.4c3.1,4.1,0.6,5.9-0.2,7c-1.5,2-2.3,2.5-2.3,4.9c0,2.4,6.8,9.4,8.4,11.1c1.6,1.7,8.4,7.6,10.5,8
      c2.1,0.3,5-1.9,5.6-2.5c3.1-2.4,4.8-0.6,6.2,0.2c1.4,0.8,7.8,4.8,9.8,6.1c1.9,1.3,1.7,3.4,1.7,3.4s-1.3,3.9-4.3,6.8
      c-0.7,0.7-2,1.6-5.1,1.6c-3.1,0-6.5-0.6-14.5-5c-6.5-3.6-12.7-9.2-16-12.5C35.2,57.8,29.5,51.2,25.7,44.3z"/>
  </g>
</svg>