<?xml version="1.0" encoding="UTF-8" standalone="no"?><!DOCTYPE svg PUBLIC "-//W3C//DTD SVG 1.1//EN" "http://www.w3.org/Graphics/SVG/1.1/DTD/svg11.dtd"><svg width="100%" height="100%" viewBox="0 0 545 110" version="1.1" xmlns="http://www.w3.org/2000/svg" xmlns:xlink="http://www.w3.org/1999/xlink" xml:space="preserve" xmlns:serif="http://www.serif.com/" style="fill-rule:evenodd;clip-rule:evenodd;stroke-linejoin:round;stroke-miterlimit:2;"><g><path d="M107.182,81.059c-2.692,6.808 -8.074,14.566 -15.515,14.566c-11.241,-0 -13.616,-18.84 -13.616,-28.498c0,-9.974 2.375,-21.531 7.6,-31.98c6.649,-13.299 15.198,-23.431 20.739,-23.431c5.067,-0 3.8,7.916 12.349,7.916c5.858,-0 9.183,-3.642 9.183,-9.025c-0,-7.757 -6.808,-10.607 -13.616,-10.607c-18.681,0 -31.189,20.74 -37.521,36.097l-1.109,-0c-0.475,-18.682 -4.116,-36.097 -30.08,-36.097c-14.249,0 -28.023,8.708 -28.023,21.373c0,3.8 2.534,8.233 8.391,8.233c5.383,-0 8.233,-3.8 8.233,-7.441c-0,-3.483 -0.792,-5.067 -0.792,-8.233c0,-4.116 4.117,-7.124 9.024,-7.124c12.508,-0 14.249,17.415 14.249,34.197c0,4.591 -0.158,7.599 -0.475,12.982c-5.066,13.457 -18.84,44.171 -31.822,44.171c-9.974,-0 -5.699,-12.507 -16.782,-12.507c-5.383,-0 -7.599,3.641 -7.599,8.865c0,7.916 7.441,13.458 18.523,13.458c20.107,-0 30.714,-20.74 37.839,-34.672l0.949,-0c0.792,13.773 8.55,34.672 25.806,34.672c15.832,-0 25.806,-13.616 29.289,-25.648l-5.224,-1.267Z" style="fill-rule:nonzero;"/><g><path d="M186.334,15.611c0.726,0 1.017,0.291 1.017,1.09l-0,90.281c-0,0.727 0.363,1.017 1.089,1.017l11.767,0c0.726,0 1.017,-0.29 1.017,-1.017l-0,-90.281c-0,-0.799 0.29,-1.09 1.016,-1.09l29.78,0c0.726,0 1.016,-0.29 1.016,-1.016l0,-10.605c0,-0.726 -0.29,-1.016 -1.016,-1.016l-75.465,-0c-0.726,-0 -1.017,0.29 -1.017,1.016l0,10.605c0,0.726 0.291,1.016 1.017,1.016l29.779,0Z" style="fill-rule:nonzero;"/><path d="M238.68,106.982c-0,0.727 0.29,1.017 1.016,1.017l11.331,0c0.726,0 1.017,-0.29 1.017,-1.017l-0,-40.456c-0,-12.855 7.263,-23.678 19.901,-23.678c12.493,0 18.013,8.353 18.013,20.265l-0,43.869c-0,0.727 0.29,1.017 1.089,1.017l11.258,0c0.727,0 1.017,-0.29 1.017,-1.017l0,-44.813c0,-18.739 -10.386,-31.377 -29.416,-31.377c-8.062,-0 -17.141,3.704 -20.991,11.33l-0.871,0l-0,-38.132c-0,-0.726 -0.291,-1.016 -1.017,-1.016l-11.331,-0c-0.726,-0 -1.016,0.29 -1.016,1.016l-0,102.992Z" style="fill-rule:nonzero;"/><path d="M314.413,106.982c-0,0.727 0.29,1.017 1.017,1.017l11.33,0c0.726,0 1.017,-0.29 1.017,-1.017l-0,-39.584c-0,-12.783 6.9,-24.259 20.845,-24.259c2.252,-0 4.14,0.145 6.247,0.291c0.726,-0 1.017,-0.146 1.017,-0.872l-0,-10.386c-0,-0.799 -0.291,-1.235 -1.017,-1.235c-1.598,-0.145 -3.995,-0.145 -5.956,-0.145c-8.934,-0 -16.342,4.14 -20.482,11.33l-0.945,0l0,-8.788c0,-0.727 -0.29,-1.017 -1.016,-1.017l-11.04,-0c-0.727,-0 -1.017,0.29 -1.017,1.017l-0,73.648Z" style="fill-rule:nonzero;"/><path d="M368.719,63.839c-0.799,0 -1.089,-0.29 -0.944,-1.089c1.38,-9.225 6.246,-20.047 21.136,-20.047c14.89,0 19.538,10.532 20.845,20.047c0.146,0.799 -0.145,1.089 -0.871,1.089l-40.166,0Zm40.892,21.572c-0.726,-0 -1.162,0.29 -1.525,0.871c-3.269,7.409 -9.007,11.331 -18.449,11.331c-15.761,-0 -21.717,-11.185 -22.298,-21.717c0,-0.799 0.291,-1.089 1.09,-1.089l53.529,-0c0.727,-0 1.163,-0.291 1.163,-1.017c0.145,-1.308 0.145,-2.833 0.145,-3.705c-0,-24.259 -12.783,-39.293 -34.355,-39.293c-21.717,-0 -35.081,15.034 -35.081,39.293l-0,0.146c-0,24.259 13.364,39.221 35.807,39.221c16.996,-0 27.237,-7.844 32.031,-23.024c0.145,-0.581 -0,-1.017 -0.726,-1.017l-11.331,-0Z" style="fill-rule:nonzero;"/><path d="M479.243,77.639c0,12.638 -9.66,20.264 -22.661,20.264c-9.515,0 -15.907,-4.503 -15.907,-11.911l0,-0.145c0,-9.225 9.515,-12.348 16.996,-12.493l20.483,-0.581c0.798,-0 1.089,0.29 1.089,1.017l0,3.849Zm20.918,18.739c-4.721,0.436 -7.554,0.145 -7.554,-6.101l0,-32.394c0,-18.739 -13.364,-27.091 -31.231,-27.091c-15.762,-0 -30.215,8.062 -30.942,23.968c0,0.726 0.291,1.017 1.017,1.017l11.186,-0c0.726,-0 1.016,-0.291 1.016,-1.017c0.727,-8.353 8.208,-12.493 17.723,-12.493c13.654,0 17.867,6.101 17.867,15.326l0,3.413c0,0.727 -0.291,1.017 -1.089,1.017l-21.136,0.727c-17.505,0.653 -29.852,9.369 -29.852,23.242l-0,0.145c-0,14.599 11.621,23.315 27.382,23.315c10.241,-0 20.482,-3.704 26.002,-10.532l0.727,0c1.38,7.046 7.19,9.37 13.291,9.37c1.889,-0 3.777,-0.218 5.593,-0.581c0.799,-0.145 1.09,-0.581 1.09,-1.38l-0,-9.007c-0,-0.799 -0.291,-0.944 -1.09,-0.944Z" style="fill-rule:nonzero;"/><path d="M543.791,108.145c0.799,-0.146 1.089,-0.436 1.089,-1.163l0,-9.079c0,-0.798 -0.29,-1.089 -1.089,-0.944c-2.179,0.363 -4.721,0.509 -6.828,0.509c-7.699,-0 -10.967,-3.269 -10.967,-10.75l-0,-42.417c-0,-0.726 0.29,-1.017 1.017,-1.017l16.487,0c0.799,0 1.09,-0.29 1.09,-1.017l-0,-8.933c-0,-0.727 -0.291,-1.017 -1.09,-1.017l-16.487,-0c-0.727,-0 -1.017,-0.363 -1.017,-1.09l-0,-19.61c-0,-0.727 -0.291,-1.017 -1.09,-1.017l-11.112,-0c-0.799,-0 -1.09,0.29 -1.09,1.017l0,19.61c0,0.727 -0.29,1.09 -1.017,1.09l-12.202,-0c-0.726,-0 -1.017,0.29 -1.017,1.017l0,8.933c0,0.727 0.291,1.017 1.017,1.017l12.202,0c0.727,0 1.017,0.291 1.017,1.017l0,44.669c0,12.638 5.956,20.046 20.846,20.046c3.994,0 7.553,-0.436 10.241,-0.871Z" style="fill-rule:nonzero;"/></g></g></svg>