<svg width="100%" height="100%" viewBox="0 0 545 110" version="1.1" xmlns="http://www.w3.org/2000/svg" xmlns:xlink="http://www.w3.org/1999/xlink" xml:space="preserve" style="fill-rule:evenodd;clip-rule:evenodd;stroke-linejoin:round;stroke-miterlimit:2;">
    <defs>
        <linearGradient id="grad" x1="0%" y1="0%" x2="0%" y2="100%">
            <stop offset="0%" style="stop-color:#171717;stop-opacity:1" /> <!-- neutral-900 -->
            <stop offset="100%" style="stop-color:#f5f5f5;stop-opacity:1" /> <!-- neutral-100 -->
        </linearGradient>
    </defs>
    <g style="fill:url(#grad)">
        <path d="M107.182,81.059C104.49,87.867 99.108,95.625 91.667,95.625C80.426,95.625 78.051,76.785 78.051,67.127C78.051,57.153 80.426,45.596 85.651,35.147C92.3,21.848 100.849,11.716 106.39,11.716C111.457,11.716 110.19,19.632 118.739,19.632C124.597,19.632 127.922,15.99 127.922,10.607C127.922,2.85 121.114,-0 114.306,-0C95.625,-0 83.117,20.74 76.785,36.097L75.676,36.097C75.201,17.415 71.56,-0 45.596,-0C31.347,-0 17.573,8.708 17.573,21.373C17.573,25.173 20.107,29.606 25.964,29.606C31.347,29.606 34.197,25.806 34.197,22.165C34.197,18.682 33.405,17.098 33.405,13.932C33.405,9.816 37.522,6.808 42.429,6.808C54.937,6.808 56.678,24.223 56.678,41.005C56.678,45.596 56.52,48.604 56.203,53.987C51.137,67.444 37.363,98.158 24.381,98.158C14.407,98.158 18.682,85.651 7.599,85.651C2.216,85.651 0,89.292 0,94.516C0,102.432 7.441,107.974 18.523,107.974C38.63,107.974 49.237,87.234 56.362,73.302L57.311,73.302C58.103,87.075 65.861,107.974 83.117,107.974C98.949,107.974 108.923,94.358 112.406,82.326L107.182,81.059Z" style="fill:url(#grad);fill-rule:nonzero;"/>
        <g>
            <path d="M186.334,15.611C187.06,15.611 187.351,15.902 187.351,16.701L187.351,106.982C187.351,107.709 187.714,107.999 188.44,107.999L200.207,107.999C200.933,107.999 201.224,107.709 201.224,106.982L201.224,16.701C201.224,15.902 201.514,15.611 202.24,15.611L232.02,15.611C232.746,15.611 233.036,15.321 233.036,14.595L233.036,3.99C233.036,3.264 232.746,2.974 232.02,2.974L156.555,2.974C155.829,2.974 155.538,3.264 155.538,3.99L155.538,14.595C155.538,15.321 155.829,15.611 156.555,15.611L186.334,15.611Z" style="fill:url(#grad);fill-rule:nonzero;"/>
            <path d="M238.68,106.982C238.68,107.709 238.97,107.999 239.696,107.999L251.027,107.999C251.753,107.999 252.044,107.709 252.044,106.982L252.044,66.526C252.044,53.671 259.307,42.848 271.945,42.848C284.438,42.848 289.958,51.201 289.958,63.113L289.958,106.982C289.958,107.709 290.248,107.999 291.047,107.999L302.305,107.999C303.032,107.999 303.322,107.709 303.322,106.982L303.322,62.169C303.322,43.43 292.936,30.792 273.906,30.792C265.844,30.792 256.765,34.496 252.915,42.122L252.044,42.122L252.044,3.99C252.044,3.264 251.753,2.974 251.027,2.974L239.696,2.974C238.97,2.974 238.68,3.264 238.68,3.99L238.68,106.982Z" style="fill:url(#grad);fill-rule:nonzero;"/>
            <path d="M314.413,106.982C314.413,107.709 314.703,107.999 315.43,107.999L326.76,107.999C327.486,107.999 327.777,107.709 327.777,106.982L327.777,67.398C327.777,54.615 334.677,43.139 348.622,43.139C350.874,43.139 352.762,43.284 354.869,43.43C355.595,43.43 355.886,43.284 355.886,42.558L355.886,32.172C355.886,31.373 355.595,30.937 354.869,30.937C353.271,30.792 350.874,30.792 348.913,30.792C339.979,30.792 332.571,34.932 328.431,42.122L327.486,42.122L327.486,33.334C327.486,32.607 327.196,32.317 326.47,32.317L315.43,32.317C314.703,32.317 314.413,32.607 314.413,33.334L314.413,106.982Z" style="fill:url(#grad);fill-rule:nonzero;"/>
            <path d="M368.719,63.839C367.92,63.839 367.63,63.549 367.775,62.75C369.155,53.525 374.021,42.703 388.911,42.703C403.801,42.703 408.449,53.235 409.756,62.75C409.902,63.549 409.611,63.839 408.885,63.839L368.719,63.839ZM409.611,85.411C408.885,85.411 408.449,85.701 408.086,86.282C404.817,93.691 399.079,97.613 389.637,97.613C373.876,97.613 367.92,86.428 367.339,75.896C367.339,75.097 367.63,74.807 368.429,74.807L421.958,74.807C422.685,74.807 423.121,74.516 423.121,73.79C423.266,72.482 423.266,70.957 423.266,70.085C423.266,45.826 410.483,30.792 388.911,30.792C367.194,30.792 353.83,45.826 353.83,70.085L353.83,70.231C353.83,94.49 367.194,109.452 389.637,109.452C406.633,109.452 416.874,101.608 421.668,86.428C421.813,85.847 421.668,85.411 420.942,85.411L409.611,85.411Z" style="fill:url(#grad);fill-rule:nonzero;"/>
            <path d="M479.243,77.639C479.243,90.277 469.583,97.903 456.582,97.903C447.067,97.903 440.675,93.4 440.675,85.992L440.675,85.847C440.675,76.622 450.19,73.499 457.671,73.354L478.154,72.773C478.952,72.773 479.243,73.063 479.243,73.79L479.243,77.639ZM500.161,96.378C495.44,96.814 492.607,96.523 492.607,90.277L492.607,57.883C492.607,39.144 479.243,30.792 461.376,30.792C445.614,30.792 431.161,38.854 430.434,54.76C430.434,55.486 430.725,55.777 431.451,55.777L442.637,55.777C443.363,55.777 443.653,55.486 443.653,54.76C444.38,46.407 451.861,42.267 461.376,42.267C475.03,42.267 479.243,48.368 479.243,57.593L479.243,61.006C479.243,61.733 478.952,62.023 478.154,62.023L457.018,62.75C439.513,63.403 427.166,72.119 427.166,85.992L427.166,86.137C427.166,100.736 438.787,109.452 454.548,109.452C464.789,109.452 475.03,105.748 480.55,98.92L481.277,98.92C482.657,105.966 488.467,108.29 494.568,108.29C496.457,108.29 498.345,108.072 500.161,107.709C500.96,107.564 501.251,107.128 501.251,106.329L501.251,97.322C501.251,96.523 500.96,96.378 500.161,96.378Z" style="fill:url(#grad);fill-rule:nonzero;"/>
            <path d="M543.791,108.145C544.59,107.999 544.88,107.709 544.88,106.982L544.88,97.903C544.88,97.105 544.59,96.814 543.791,96.959C541.612,97.322 539.07,97.468 536.963,97.468C529.264,97.468 525.996,94.199 525.996,86.718L525.996,44.301C525.996,43.575 526.286,43.284 527.013,43.284L543.5,43.284C544.299,43.284 544.59,42.994 544.59,42.267L544.59,33.334C544.59,32.607 544.299,32.317 543.5,32.317L527.013,32.317C526.286,32.317 525.996,31.954 525.996,31.227L525.996,11.617C525.996,10.89 525.705,10.6 524.906,10.6L513.794,10.6C512.995,10.6 512.704,10.89 512.704,11.617L512.704,31.227C512.704,31.954 512.414,32.317 511.687,32.317L499.485,32.317C498.759,32.317 498.468,32.607 498.468,33.334L498.468,42.267C498.468,42.994 498.759,43.284 499.485,43.284L511.687,43.284C512.414,43.284 512.704,43.575 512.704,44.301L512.704,88.97C512.704,101.608 518.66,109.016 533.55,109.016C537.544,109.016 541.103,108.58 543.791,108.145Z" style="fill:url(#grad);fill-rule:nonzero;"/>
        </g>
    </g>
</svg>