
<svg width="100%" height="100%" viewBox="0 0 128 108" version="1.1" xmlns="http://www.w3.org/2000/svg" xmlns:xlink="http://www.w3.org/1999/xlink" xml:space="preserve" style="fill-rule:evenodd;clip-rule:evenodd;stroke-linejoin:round;stroke-miterlimit:2;">
    <defs>
        <linearGradient id="grad" x1="0%" y1="0%" x2="0%" y2="100%">
            <stop offset="0%" style="stop-color:white;stop-opacity:1" />
            <stop offset="100%" style="stop-color:#737373;stop-opacity:1" /> <!-- neutral-500 equivalent -->
        </linearGradient>
    </defs>
    <path d="M107.182,81.059C104.49,87.867 99.108,95.625 91.667,95.625C80.426,95.625 78.051,76.785 78.051,67.127C78.051,57.153 80.426,45.596 85.651,35.147C92.3,21.848 100.849,11.716 106.39,11.716C111.457,11.716 110.19,19.632 118.739,19.632C124.597,19.632 127.922,15.99 127.922,10.607C127.922,2.85 121.114,-0 114.306,-0C95.625,-0 83.117,20.74 76.785,36.097L75.676,36.097C75.201,17.415 71.56,-0 45.596,-0C31.347,-0 17.573,8.708 17.573,21.373C17.573,25.173 20.107,29.606 25.964,29.606C31.347,29.606 34.197,25.806 34.197,22.165C34.197,18.682 33.405,17.098 33.405,13.932C33.405,9.816 37.522,6.808 42.429,6.808C54.937,6.808 56.678,24.223 56.678,41.005C56.678,45.596 56.52,48.604 56.203,53.987C51.137,67.444 37.363,98.158 24.381,98.158C14.407,98.158 18.682,85.651 7.599,85.651C2.216,85.651 0,89.292 0,94.516C0,102.432 7.441,107.974 18.523,107.974C38.63,107.974 49.237,87.234 56.362,73.302L57.311,73.302C58.103,87.075 65.861,107.974 83.117,107.974C98.949,107.974 108.923,94.358 112.406,82.326L107.182,81.059Z" style="fill:url(#grad);fill-rule:nonzero;"/>
</svg>